<svg xmlns="http://www.w3.org/2000/svg" xmlns:xlink="http://www.w3.org/1999/xlink" width="125" zoomAndPan="magnify" viewBox="0 0 93.75 30.000001" height="40" preserveAspectRatio="xMidYMid meet" version="1.0"><defs><g/><clipPath id="2e2a4fb175"><path d="M 3.570312 3.628906 L 29.699219 3.628906 L 29.699219 8 L 3.570312 8 Z M 3.570312 3.628906 " clip-rule="nonzero"/></clipPath><clipPath id="c226c2e08d"><path d="M 3.570312 11 L 22 11 L 22 17 L 3.570312 17 Z M 3.570312 11 " clip-rule="nonzero"/></clipPath><clipPath id="0736782bef"><path d="M 3.570312 20 L 13 20 L 13 24.675781 L 3.570312 24.675781 Z M 3.570312 20 " clip-rule="nonzero"/></clipPath><clipPath id="fb5eb86004"><path d="M 30 0 L 92 0 L 92 29.03125 L 30 29.03125 Z M 30 0 " clip-rule="nonzero"/></clipPath><clipPath id="34e132f294"><rect x="0" width="62" y="0" height="30"/></clipPath></defs><g clip-path="url(#2e2a4fb175)"><path fill="#ffffff" d="M 5.738281 3.628906 L 27.527344 3.628906 C 27.8125 3.628906 28.089844 3.683594 28.355469 3.792969 C 28.617188 3.902344 28.851562 4.0625 29.054688 4.265625 C 29.257812 4.46875 29.414062 4.703125 29.523438 4.96875 C 29.632812 5.234375 29.6875 5.511719 29.6875 5.800781 C 29.6875 6.089844 29.632812 6.367188 29.523438 6.632812 C 29.414062 6.898438 29.257812 7.132812 29.054688 7.335938 C 28.851562 7.542969 28.617188 7.699219 28.355469 7.808594 C 28.089844 7.917969 27.8125 7.972656 27.527344 7.972656 L 5.738281 7.972656 C 5.449219 7.972656 5.175781 7.917969 4.910156 7.808594 C 4.648438 7.699219 4.414062 7.542969 4.210938 7.335938 C 4.007812 7.132812 3.851562 6.898438 3.742188 6.632812 C 3.632812 6.367188 3.578125 6.089844 3.578125 5.800781 C 3.578125 5.511719 3.632812 5.234375 3.742188 4.96875 C 3.851562 4.703125 4.007812 4.46875 4.210938 4.265625 C 4.414062 4.0625 4.648438 3.902344 4.910156 3.792969 C 5.175781 3.683594 5.449219 3.628906 5.738281 3.628906 Z M 5.738281 3.628906 " fill-opacity="1" fill-rule="nonzero"/></g><g clip-path="url(#c226c2e08d)"><path fill="#ffffff" d="M 5.738281 11.980469 L 19.835938 11.980469 C 20.121094 11.980469 20.394531 12.035156 20.660156 12.144531 C 20.925781 12.253906 21.160156 12.414062 21.359375 12.617188 C 21.5625 12.820312 21.71875 13.054688 21.828125 13.320312 C 21.9375 13.585938 21.992188 13.863281 21.992188 14.152344 C 21.992188 14.441406 21.9375 14.71875 21.828125 14.984375 C 21.71875 15.25 21.5625 15.484375 21.359375 15.6875 C 21.160156 15.894531 20.925781 16.050781 20.660156 16.160156 C 20.394531 16.269531 20.121094 16.324219 19.835938 16.324219 L 5.738281 16.324219 C 5.449219 16.324219 5.175781 16.269531 4.910156 16.160156 C 4.648438 16.050781 4.414062 15.894531 4.210938 15.6875 C 4.007812 15.484375 3.851562 15.25 3.742188 14.984375 C 3.632812 14.71875 3.578125 14.441406 3.578125 14.152344 C 3.578125 13.863281 3.632812 13.585938 3.742188 13.320312 C 3.851562 13.054688 4.007812 12.820312 4.210938 12.617188 C 4.414062 12.414062 4.648438 12.253906 4.910156 12.144531 C 5.175781 12.035156 5.449219 11.980469 5.738281 11.980469 Z M 5.738281 11.980469 " fill-opacity="1" fill-rule="nonzero"/></g><g clip-path="url(#0736782bef)"><path fill="#ffffff" d="M 5.738281 20.332031 L 10.628906 20.332031 C 10.914062 20.332031 11.1875 20.386719 11.453125 20.496094 C 11.71875 20.605469 11.953125 20.765625 12.152344 20.96875 C 12.355469 21.171875 12.511719 21.40625 12.621094 21.671875 C 12.730469 21.9375 12.785156 22.214844 12.785156 22.503906 C 12.785156 22.792969 12.730469 23.070312 12.621094 23.335938 C 12.511719 23.601562 12.355469 23.835938 12.152344 24.039062 C 11.953125 24.246094 11.71875 24.402344 11.453125 24.511719 C 11.1875 24.621094 10.914062 24.675781 10.628906 24.675781 L 5.738281 24.675781 C 5.449219 24.675781 5.175781 24.621094 4.910156 24.511719 C 4.648438 24.402344 4.414062 24.246094 4.210938 24.039062 C 4.007812 23.835938 3.851562 23.601562 3.742188 23.335938 C 3.632812 23.070312 3.578125 22.792969 3.578125 22.503906 C 3.578125 22.214844 3.632812 21.9375 3.742188 21.671875 C 3.851562 21.40625 4.007812 21.171875 4.210938 20.96875 C 4.414062 20.765625 4.648438 20.605469 4.910156 20.496094 C 5.175781 20.386719 5.449219 20.332031 5.738281 20.332031 Z M 5.738281 20.332031 " fill-opacity="1" fill-rule="nonzero"/></g><g clip-path="url(#fb5eb86004)"><g transform="matrix(1, 0, 0, 1, 30, 0.000000000000005692)"><g clip-path="url(#34e132f294)"><g fill="#ffffff" fill-opacity="1"><g transform="translate(0.408141, 22.910468)"><g><path d="M 6.09375 -11.15625 L 13.75 -11.15625 L 13.75 -7.453125 L 6.09375 -7.453125 L 6.09375 0 L 2.1875 0 L 2.1875 -18.875 L 14.640625 -18.875 L 14.640625 -15.171875 L 6.09375 -15.171875 Z M 6.09375 -11.15625 "/></g></g></g><g fill="#ffffff" fill-opacity="1"><g transform="translate(16.05355, 22.910468)"><g><path d="M 5.515625 -19.65625 L 5.515625 0 L 1.734375 0 L 1.734375 -19.65625 Z M 5.515625 -19.65625 "/></g></g></g><g fill="#ffffff" fill-opacity="1"><g transform="translate(23.309738, 22.910468)"><g><path d="M 0.9375 -6.40625 C 0.9375 -7.375 1.117188 -8.265625 1.484375 -9.078125 C 1.847656 -9.898438 2.351562 -10.617188 3 -11.234375 C 3.65625 -11.847656 4.40625 -12.320312 5.25 -12.65625 C 6.101562 -12.988281 7.019531 -13.15625 8 -13.15625 C 9.300781 -13.15625 10.476562 -12.863281 11.53125 -12.28125 C 12.582031 -11.707031 13.421875 -10.921875 14.046875 -9.921875 C 14.679688 -8.921875 15 -7.773438 15 -6.484375 C 15 -5.515625 14.816406 -4.617188 14.453125 -3.796875 C 14.085938 -2.972656 13.578125 -2.253906 12.921875 -1.640625 C 12.273438 -1.023438 11.523438 -0.546875 10.671875 -0.203125 C 9.828125 0.128906 8.921875 0.296875 7.953125 0.296875 C 6.648438 0.296875 5.46875 0.00390625 4.40625 -0.578125 C 3.351562 -1.160156 2.507812 -1.957031 1.875 -2.96875 C 1.25 -3.976562 0.9375 -5.125 0.9375 -6.40625 Z M 4.796875 -6.46875 C 4.796875 -5.820312 4.941406 -5.25 5.234375 -4.75 C 5.523438 -4.25 5.910156 -3.859375 6.390625 -3.578125 C 6.867188 -3.296875 7.398438 -3.15625 7.984375 -3.15625 C 8.867188 -3.15625 9.613281 -3.457031 10.21875 -4.0625 C 10.832031 -4.675781 11.140625 -5.476562 11.140625 -6.46875 C 11.140625 -7.101562 10.992188 -7.664062 10.703125 -8.15625 C 10.410156 -8.644531 10.023438 -9.03125 9.546875 -9.3125 C 9.078125 -9.59375 8.546875 -9.734375 7.953125 -9.734375 C 7.066406 -9.734375 6.316406 -9.425781 5.703125 -8.8125 C 5.097656 -8.207031 4.796875 -7.425781 4.796875 -6.46875 Z M 4.796875 -6.46875 "/></g></g></g><g fill="#ffffff" fill-opacity="1"><g transform="translate(39.244426, 22.910468)"><g><path d="M 14.921875 -4.828125 L 17.359375 -12.875 L 21.125 -12.875 L 17.0625 0 L 13.375 0 L 10.75 -8.21875 L 10.734375 -8.21875 L 8.078125 0 L 4.4375 0 L 0.4375 -12.875 L 4.296875 -12.875 L 6.609375 -4.890625 L 6.625 -4.890625 L 9.046875 -12.875 L 12.515625 -12.875 Z M 14.921875 -4.828125 "/></g></g></g></g></g></g></svg>